<svg width="41" height="40" viewBox="0 0 41 40" fill="none" xmlns="http://www.w3.org/2000/svg">
<path d="M33.9194 11.2681L36.1631 15.4935L40.9618 16.0766L37.4406 19.25L38.1448 23.9444L33.9194 21.3035L29.6939 23.9444L30.3982 19.25L26.877 16.0766L31.8067 15.4935L33.9194 11.2681Z" fill="black"/>
<path d="M29.1306 39.4375H26.3137V32.395C26.3115 30.528 25.5688 28.738 24.2486 27.4177C22.9283 26.0975 21.1383 25.3548 19.2713 25.3526H10.8203C8.95324 25.3548 7.16325 26.0975 5.84302 27.4177C4.52278 28.738 3.78011 30.528 3.77791 32.395V39.4375H0.960938V32.395C0.963994 29.7811 2.00373 27.2751 3.85206 25.4268C5.7004 23.5784 8.2064 22.5387 10.8203 22.5356H19.2713C21.8852 22.5387 24.3912 23.5784 26.2395 25.4268C28.0879 27.2751 29.1276 29.7811 29.1306 32.395V39.4375Z" fill="black"/>
<path d="M16.4532 2.81697C17.846 2.81697 19.2076 3.23 20.3657 4.00383C21.5238 4.77767 22.4265 5.87754 22.9595 7.16438C23.4925 8.45121 23.632 9.86721 23.3603 11.2333C23.0885 12.5994 22.4178 13.8542 21.4329 14.8391C20.448 15.824 19.1932 16.4948 17.8271 16.7665C16.461 17.0382 15.045 16.8988 13.7581 16.3658C12.4713 15.8327 11.3714 14.9301 10.5976 13.772C9.82376 12.6138 9.41073 11.2523 9.41073 9.8594C9.41073 7.99163 10.1527 6.20036 11.4734 4.87965C12.7941 3.55894 14.5854 2.81697 16.4532 2.81697ZM16.4532 0C14.5031 0 12.5969 0.578244 10.9756 1.66161C9.3542 2.74497 8.09049 4.2848 7.34426 6.08637C6.59802 7.88794 6.40277 9.87034 6.7832 11.7829C7.16363 13.6954 8.10264 15.4522 9.48151 16.831C10.8604 18.2099 12.6171 19.1489 14.5297 19.5294C16.4422 19.9098 18.4246 19.7145 20.2262 18.9683C22.0278 18.2221 23.5676 16.9584 24.6509 15.337C25.7343 13.7156 26.3126 11.8094 26.3126 9.8594C26.3126 7.24452 25.2738 4.73675 23.4248 2.88775C21.5758 1.03875 19.068 0 16.4532 0Z" fill="black"/>
</svg>
