<svg width="34" height="34" viewBox="0 0 34 34" fill="none" xmlns="http://www.w3.org/2000/svg">
<path d="M0.0601892 21.0904C0.175036 21.5113 0.450285 21.8703 0.826856 22.0904L4.01019 23.9404V27.6071C4.01019 28.0491 4.18578 28.4731 4.49834 28.7856C4.81091 29.0982 5.23483 29.2738 5.67686 29.2738H9.34352L11.1935 32.4571C11.3389 32.709 11.5478 32.9184 11.7992 33.0646C12.0507 33.2108 12.336 33.2887 12.6269 33.2904C12.926 33.2903 13.2196 33.2097 13.4769 33.0571L16.6435 31.2238L19.8269 33.0571C20.0161 33.168 20.2253 33.2404 20.4426 33.2703C20.6599 33.3001 20.8809 33.2868 21.0931 33.2311C21.3052 33.1753 21.5042 33.0783 21.6788 32.9455C21.8533 32.8126 21.9999 32.6467 22.1102 32.4571L23.9435 29.2738H27.6102C28.0522 29.2738 28.4761 29.0982 28.7887 28.7856C29.1013 28.4731 29.2769 28.0491 29.2769 27.6071V23.9404L32.4602 22.0904C32.8414 21.8706 33.1202 21.5089 33.2357 21.0842C33.3513 20.6596 33.2941 20.2065 33.0769 19.8238L31.2269 16.6238L33.0769 13.4404C33.2941 13.0577 33.3513 12.6046 33.2357 12.18C33.1202 11.7553 32.8414 11.3936 32.4602 11.1738L29.2769 9.34043V5.67377C29.2769 5.23174 29.1013 4.80781 28.7887 4.49525C28.4761 4.18269 28.0522 4.0071 27.6102 4.0071H23.9435L22.1102 0.823765C21.8861 0.443724 21.5205 0.168023 21.0935 0.0570983C20.8818 0.000206592 20.6609 -0.0143565 20.4436 0.0142429C20.2262 0.0428424 20.0167 0.114043 19.8269 0.223765L16.6269 2.0571L13.4602 0.223765C13.0795 0.00507884 12.6279 -0.0545718 12.2035 0.0577714C11.7791 0.170115 11.4162 0.445377 11.1935 0.823765L9.34352 4.0071H5.67686C5.23483 4.0071 4.81091 4.18269 4.49834 4.49525C4.18578 4.80781 4.01019 5.23174 4.01019 5.67377V9.34043L0.843523 11.1738C0.652544 11.2826 0.484993 11.4282 0.350519 11.6021C0.216045 11.7761 0.117305 11.9749 0.0599866 12.1871C0.002668 12.3993 -0.0120969 12.6208 0.0165419 12.8388C0.0451808 13.0567 0.116658 13.2669 0.226856 13.4571L2.06019 16.6238L0.226856 19.8071C0.114915 19.9991 0.0425025 20.2115 0.01388 20.4319C-0.0147425 20.6523 0.00100262 20.8762 0.0601892 21.0904ZM5.42686 15.8071L3.94352 13.2904L6.52686 11.7904C6.77565 11.6429 6.98178 11.4332 7.12496 11.1819C7.26815 10.9306 7.34347 10.6463 7.34352 10.3571V7.34043H10.3102C10.6039 7.3416 10.8926 7.26514 11.1473 7.1188C11.4019 6.97246 11.6133 6.76144 11.7602 6.5071L13.2935 3.94043L15.8602 5.42377C16.1136 5.57005 16.401 5.64706 16.6935 5.64706C16.9861 5.64706 17.2735 5.57005 17.5269 5.42377L20.1102 3.94043L21.6269 6.5071C21.7737 6.76144 21.9851 6.97246 22.2398 7.1188C22.4944 7.26514 22.7832 7.3416 23.0769 7.34043H26.0269V10.3071C26.0286 10.598 26.1065 10.8833 26.2526 11.1347C26.3988 11.3862 26.6083 11.595 26.8602 11.7404L29.4269 13.2404L27.9435 15.8071C27.7972 16.0605 27.7202 16.3479 27.7202 16.6404C27.7202 16.933 27.7972 17.2204 27.9435 17.4738L29.4269 20.0404L26.8602 21.5404C26.6083 21.6859 26.3988 21.8947 26.2526 22.1461C26.1065 22.3976 26.0286 22.6829 26.0269 22.9738V25.9404H22.9769C22.686 25.9422 22.4007 26.02 22.1492 26.1662C21.8978 26.3124 21.6889 26.5219 21.5435 26.7738L20.0602 29.3404L17.4769 27.8571C17.2235 27.7108 16.9361 27.6338 16.6435 27.6338C16.351 27.6338 16.0636 27.7108 15.8102 27.8571L13.2935 29.3404L11.8102 26.7738C11.6633 26.5194 11.4519 26.3084 11.1973 26.1621C10.9427 26.0157 10.6539 25.9393 10.3602 25.9404H7.34352V22.9738C7.3295 22.6988 7.24757 22.4316 7.10506 22.196C6.96255 21.9604 6.7639 21.7638 6.52686 21.6238L3.94352 20.1238L5.42686 17.5571C5.5891 17.2941 5.67502 16.9911 5.67502 16.6821C5.67502 16.3731 5.5891 16.0701 5.42686 15.8071Z" fill="black"/>
</svg>
