<svg width="24" height="24" viewBox="0 0 24 24" fill="none" xmlns="http://www.w3.org/2000/svg">
<path d="M10.9532 11.1268C10.0303 11.1268 9.12801 10.8531 8.36058 10.3403C7.59315 9.82754 6.99501 9.0987 6.6418 8.24598C6.28859 7.39326 6.19618 6.45495 6.37624 5.5497C6.5563 4.64446 7.00076 3.81294 7.65341 3.16029C8.30605 2.50765 9.13757 2.06319 10.0428 1.88313C10.9481 1.70306 11.8864 1.79548 12.7391 2.14869C13.5918 2.5019 14.3207 3.10004 14.8334 3.86746C15.3462 4.63489 15.6199 5.53715 15.6199 6.46013C15.6199 7.6978 15.1282 8.88479 14.2531 9.75996C13.3779 10.6351 12.1909 11.1268 10.9532 11.1268ZM10.9532 3.18013C10.294 3.18013 9.6495 3.37562 9.10134 3.74189C8.55317 4.10817 8.12593 4.62876 7.87364 5.23785C7.62135 5.84693 7.55534 6.51716 7.68395 7.16376C7.81257 7.81036 8.13004 8.40431 8.59622 8.87048C9.06239 9.33666 9.65633 9.65413 10.3029 9.78274C10.9495 9.91136 11.6198 9.84535 12.2288 9.59306C12.8379 9.34076 13.3585 8.91352 13.7248 8.36536C14.0911 7.8172 14.2866 7.17273 14.2866 6.51346C14.2866 6.07572 14.2004 5.64227 14.0328 5.23785C13.8653 4.83343 13.6198 4.46597 13.3103 4.15644C13.0007 3.84691 12.6333 3.60138 12.2288 3.43386C11.8244 3.26635 11.391 3.18013 10.9532 3.18013ZM14.6666 11.9335C11.0589 11.1216 7.28459 11.5127 3.91991 13.0468C3.45717 13.2678 3.06675 13.6158 2.7941 14.0501C2.52146 14.4845 2.37782 14.9873 2.37991 15.5001V19.4668C2.37991 19.5543 2.39715 19.641 2.43065 19.7219C2.46416 19.8028 2.51326 19.8763 2.57517 19.9382C2.63707 20.0001 2.71057 20.0492 2.79145 20.0827C2.87233 20.1162 2.95902 20.1335 3.04657 20.1335C3.13412 20.1335 3.22081 20.1162 3.30169 20.0827C3.38258 20.0492 3.45607 20.0001 3.51798 19.9382C3.57988 19.8763 3.62899 19.8028 3.66249 19.7219C3.69599 19.641 3.71324 19.5543 3.71324 19.4668V15.5001C3.70743 15.2406 3.77752 14.985 3.91489 14.7647C4.05226 14.5445 4.25095 14.3691 4.48657 14.2601C6.51342 13.3243 8.72078 12.8441 10.9532 12.8535C12.2041 12.8519 13.4507 12.9996 14.6666 13.2935V11.9335ZM14.7599 18.2735H18.8532V19.2068H14.7599V18.2735Z" fill="white"/>
<path d="M22.1137 14.3132H18.667V15.6465H21.447V21.2265H12.0003V15.6465H16.2003V15.9265C16.2003 16.1033 16.2706 16.2729 16.3956 16.3979C16.5206 16.5229 16.6902 16.5932 16.867 16.5932C17.0438 16.5932 17.2134 16.5229 17.3384 16.3979C17.4634 16.2729 17.5337 16.1033 17.5337 15.9265V13.3332C17.5337 13.1564 17.4634 12.9868 17.3384 12.8618C17.2134 12.7367 17.0438 12.6665 16.867 12.6665C16.6902 12.6665 16.5206 12.7367 16.3956 12.8618C16.2706 12.9868 16.2003 13.1564 16.2003 13.3332V14.3132H11.3337C11.1568 14.3132 10.9873 14.3834 10.8623 14.5084C10.7372 14.6335 10.667 14.803 10.667 14.9798V21.8932C10.667 22.07 10.7372 22.2396 10.8623 22.3646C10.9873 22.4896 11.1568 22.5598 11.3337 22.5598H22.1137C22.2905 22.5598 22.46 22.4896 22.5851 22.3646C22.7101 22.2396 22.7803 22.07 22.7803 21.8932V14.9798C22.7803 14.803 22.7101 14.6335 22.5851 14.5084C22.46 14.3834 22.2905 14.3132 22.1137 14.3132Z" fill="white"/>
</svg>
