<svg width="9" height="12" viewBox="0 0 9 12" fill="none" xmlns="http://www.w3.org/2000/svg">
<path d="M2.29875 11.039C3.38082 11.039 4.25375 10.2631 4.25375 9.30125V7.56348H2.29875C1.21668 7.56348 0.34375 8.33941 0.34375 9.30125C0.34375 10.2631 1.21668 11.039 2.29875 11.039Z" fill="#0ACF83"/>
<path d="M0.34375 5.82567C0.34375 4.86383 1.21668 4.08789 2.29875 4.08789H4.25375V7.56345H2.29875C1.21668 7.56345 0.34375 6.78751 0.34375 5.82567Z" fill="#A259FF"/>
<path d="M0.34375 2.35008C0.34375 1.38824 1.21668 0.612305 2.29875 0.612305H4.25375V4.08786H2.29875C1.21668 4.08786 0.34375 3.31192 0.34375 2.35008Z" fill="#F24E1E"/>
<path d="M4.25391 0.612305H6.20891C7.29098 0.612305 8.16391 1.38824 8.16391 2.35008C8.16391 3.31192 7.29098 4.08786 6.20891 4.08786H4.25391V0.612305Z" fill="#FF7262"/>
<path d="M8.16391 5.82567C8.16391 6.78751 7.29098 7.56345 6.20891 7.56345C5.12684 7.56345 4.25391 6.78751 4.25391 5.82567C4.25391 4.86383 5.12684 4.08789 6.20891 4.08789C7.29098 4.08789 8.16391 4.86383 8.16391 5.82567Z" fill="#1ABCFE"/>
</svg>
