<svg width="44" height="45" viewBox="0 0 44 45" fill="none" xmlns="http://www.w3.org/2000/svg">
<path d="M42.3203 24.0029C42.7347 24.0029 43.1321 23.8383 43.4252 23.5453C43.7182 23.2523 43.8828 22.8548 43.8828 22.4404C43.8828 22.026 43.7182 21.6286 43.4252 21.3356C43.1321 21.0425 42.7347 20.8779 42.3203 20.8779H37.6328V16.1904H42.3203C42.7347 16.1904 43.1321 16.0258 43.4252 15.7328C43.7182 15.4398 43.8828 15.0423 43.8828 14.6279C43.8828 14.2135 43.7182 13.8161 43.4252 13.5231C43.1321 13.23 42.7347 13.0654 42.3203 13.0654H37.6328C37.6328 11.4078 36.9743 9.81811 35.8022 8.64601C34.6301 7.47391 33.0404 6.81543 31.3828 6.81543V2.12793C31.3828 1.71353 31.2182 1.3161 30.9252 1.02308C30.6321 0.73005 30.2347 0.56543 29.8203 0.56543C29.4059 0.56543 29.0085 0.73005 28.7155 1.02308C28.4224 1.3161 28.2578 1.71353 28.2578 2.12793V6.81543H23.5703V2.12793C23.5703 1.71353 23.4057 1.3161 23.1127 1.02308C22.8196 0.73005 22.4222 0.56543 22.0078 0.56543C21.5934 0.56543 21.196 0.73005 20.903 1.02308C20.6099 1.3161 20.4453 1.71353 20.4453 2.12793V6.81543H15.7578V2.12793C15.7578 1.71353 15.5932 1.3161 15.3002 1.02308C15.0071 0.73005 14.6097 0.56543 14.1953 0.56543C13.7809 0.56543 13.3835 0.73005 13.0905 1.02308C12.7974 1.3161 12.6328 1.71353 12.6328 2.12793V6.81543C10.9752 6.81543 9.3855 7.47391 8.21339 8.64601C7.04129 9.81811 6.38281 11.4078 6.38281 13.0654H1.69531C1.28091 13.0654 0.883484 13.23 0.590458 13.5231C0.297432 13.8161 0.132813 14.2135 0.132812 14.6279C0.132813 15.0423 0.297432 15.4398 0.590458 15.7328C0.883484 16.0258 1.28091 16.1904 1.69531 16.1904H6.38281V20.8779H1.69531C1.28091 20.8779 0.883484 21.0425 0.590458 21.3356C0.297432 21.6286 0.132813 22.026 0.132812 22.4404C0.132813 22.8548 0.297432 23.2523 0.590458 23.5453C0.883484 23.8383 1.28091 24.0029 1.69531 24.0029H6.38281V28.6904H1.69531C1.28091 28.6904 0.883484 28.855 0.590458 29.1481C0.297432 29.4411 0.132813 29.8385 0.132812 30.2529C0.132813 30.6673 0.297432 31.0648 0.590458 31.3578C0.883484 31.6508 1.28091 31.8154 1.69531 31.8154H6.38281C6.38281 33.473 7.04129 35.0627 8.21339 36.2348C9.3855 37.4069 10.9752 38.0654 12.6328 38.0654V42.7529C12.6328 43.1673 12.7974 43.5648 13.0905 43.8578C13.3835 44.1508 13.7809 44.3154 14.1953 44.3154C14.6097 44.3154 15.0071 44.1508 15.3002 43.8578C15.5932 43.5648 15.7578 43.1673 15.7578 42.7529V38.0654H20.4453V42.7529C20.4453 43.1673 20.6099 43.5648 20.903 43.8578C21.196 44.1508 21.5934 44.3154 22.0078 44.3154C22.4222 44.3154 22.8196 44.1508 23.1127 43.8578C23.4057 43.5648 23.5703 43.1673 23.5703 42.7529V38.0654H28.2578V42.7529C28.2578 43.1673 28.4224 43.5648 28.7155 43.8578C29.0085 44.1508 29.4059 44.3154 29.8203 44.3154C30.2347 44.3154 30.6321 44.1508 30.9252 43.8578C31.2182 43.5648 31.3828 43.1673 31.3828 42.7529V38.0654C33.0404 38.0654 34.6301 37.4069 35.8022 36.2348C36.9743 35.0627 37.6328 33.473 37.6328 31.8154H42.3203C42.7347 31.8154 43.1321 31.6508 43.4252 31.3578C43.7182 31.0648 43.8828 30.6673 43.8828 30.2529C43.8828 29.8385 43.7182 29.4411 43.4252 29.1481C43.1321 28.855 42.7347 28.6904 42.3203 28.6904H37.6328V24.0029H42.3203ZM34.5078 31.8154C34.509 32.2262 34.4291 32.6331 34.2725 33.0128C34.1158 33.3925 33.8857 33.7375 33.5953 34.0279C33.3048 34.3183 32.9599 34.5485 32.5802 34.7051C32.2005 34.8617 31.7935 34.9417 31.3828 34.9404H12.6328C12.2221 34.9417 11.8152 34.8617 11.4355 34.7051C11.0558 34.5485 10.7108 34.3183 10.4203 34.0279C10.1299 33.7375 9.89977 33.3925 9.74317 33.0128C9.58656 32.6331 9.50657 32.2262 9.50781 31.8154V13.0654C9.50657 12.6547 9.58656 12.2478 9.74317 11.8681C9.89977 11.4884 10.1299 11.1434 10.4203 10.853C10.7108 10.5625 11.0558 10.3324 11.4355 10.1758C11.8152 10.0192 12.2221 9.93919 12.6328 9.94043H31.3828C31.7935 9.93919 32.2005 10.0192 32.5802 10.1758C32.9599 10.3324 33.3048 10.5625 33.5953 10.853C33.8857 11.1434 34.1158 11.4884 34.2725 11.8681C34.4291 12.2478 34.509 12.6547 34.5078 13.0654V31.8154ZM22.0078 30.2529C19.9358 30.2529 17.9487 29.4298 16.4835 27.9647C15.0184 26.4996 14.1953 24.5124 14.1953 22.4404C14.1953 18.1311 17.6984 14.6279 22.0078 14.6279C26.3172 14.6279 29.8203 18.1311 29.8203 22.4404C29.8203 26.7498 26.3172 30.2529 22.0078 30.2529ZM22.0078 17.7529C19.4234 17.7529 17.3203 19.8561 17.3203 22.4404C17.3203 25.0248 19.4234 27.1279 22.0078 27.1279C24.5922 27.1279 26.6953 25.0248 26.6953 22.4404C26.6953 19.8561 24.5922 17.7529 22.0078 17.7529Z" fill="#1D2B53"/>
</svg>
