<svg width="50" height="51" viewBox="0 0 50 51" fill="none" xmlns="http://www.w3.org/2000/svg">
<path fill-rule="evenodd" clip-rule="evenodd" d="M9.37109 8.24902C8.95669 8.24902 8.55927 8.41364 8.26624 8.70667C7.97321 8.99969 7.80859 9.39712 7.80859 9.81152V41.0615C7.80859 41.4759 7.97321 41.8734 8.26624 42.1664C8.55927 42.4594 8.95669 42.624 9.37109 42.624H25.7773C26.3989 42.624 26.9951 42.871 27.4346 43.3105C27.8742 43.75 28.1211 44.3462 28.1211 44.9678C28.1211 45.5894 27.8742 46.1855 27.4346 46.625C26.9951 47.0646 26.3989 47.3115 25.7773 47.3115H9.37109C7.71349 47.3115 6.12378 46.653 4.95168 45.4809C3.77957 44.3088 3.12109 42.7191 3.12109 41.0615V9.81152C3.12109 8.15392 3.77957 6.56421 4.95168 5.39211C6.12378 4.22 7.71349 3.56152 9.37109 3.56152H40.6211C42.2787 3.56152 43.8684 4.22 45.0405 5.39211C46.2126 6.56421 46.8711 8.15392 46.8711 9.81152V29.3428C46.8711 29.9644 46.6242 30.5605 46.1846 31.0001C45.7451 31.4396 45.1489 31.6865 44.5273 31.6865C43.9057 31.6865 43.3096 31.4396 42.8701 31.0001C42.4305 30.5605 42.1836 29.9644 42.1836 29.3428V9.81152C42.1836 9.39712 42.019 8.99969 41.7259 8.70667C41.4329 8.41364 41.0355 8.24902 40.6211 8.24902H9.37109ZM47.7461 35.499C48.185 35.9385 48.4315 36.5342 48.4315 37.1553C48.4315 37.7764 48.185 38.3721 47.7461 38.8115L39.9336 46.624C39.4941 47.0629 38.8984 47.3095 38.2773 47.3095C37.6562 47.3095 37.0606 47.0629 36.6211 46.624L33.4961 43.499C33.2658 43.2845 33.0811 43.0257 32.953 42.7382C32.8249 42.4507 32.756 42.1404 32.7505 41.8257C32.7449 41.511 32.8028 41.1984 32.9207 40.9065C33.0386 40.6147 33.214 40.3496 33.4366 40.127C33.6592 39.9045 33.9243 39.729 34.2161 39.6111C34.5079 39.4933 34.8205 39.4354 35.1352 39.4409C35.4499 39.4465 35.7603 39.5154 36.0478 39.6435C36.3353 39.7716 36.594 39.9562 36.8086 40.1865L38.2773 41.6553L44.4336 35.499C44.8731 35.0601 45.4687 34.8136 46.0898 34.8136C46.7109 34.8136 47.3066 35.0601 47.7461 35.499ZM14.8398 12.9365C14.2182 12.9365 13.6221 13.1835 13.1826 13.623C12.743 14.0625 12.4961 14.6587 12.4961 15.2803C12.4961 15.9019 12.743 16.498 13.1826 16.9376C13.6221 17.3771 14.2182 17.624 14.8398 17.624H35.1523C35.7739 17.624 36.3701 17.3771 36.8096 16.9376C37.2492 16.498 37.4961 15.9019 37.4961 15.2803C37.4961 14.6587 37.2492 14.0625 36.8096 13.623C36.3701 13.1835 35.7739 12.9365 35.1523 12.9365H14.8398ZM12.4961 25.4365C12.4961 24.8149 12.743 24.2188 13.1826 23.7792C13.6221 23.3397 14.2182 23.0928 14.8398 23.0928H35.1523C35.7739 23.0928 36.3701 23.3397 36.8096 23.7792C37.2492 24.2188 37.4961 24.8149 37.4961 25.4365C37.4961 26.0581 37.2492 26.6543 36.8096 27.0938C36.3701 27.5333 35.7739 27.7803 35.1523 27.7803H14.8398C14.2182 27.7803 13.6221 27.5333 13.1826 27.0938C12.743 26.6543 12.4961 26.0581 12.4961 25.4365ZM14.8398 33.249C14.2182 33.249 13.6221 33.496 13.1826 33.9355C12.743 34.375 12.4961 34.9712 12.4961 35.5928C12.4961 36.2144 12.743 36.8105 13.1826 37.25C13.6221 37.6896 14.2182 37.9365 14.8398 37.9365H25.7773C26.3989 37.9365 26.9951 37.6896 27.4346 37.25C27.8742 36.8105 28.1211 36.2144 28.1211 35.5928C28.1211 34.9712 27.8742 34.375 27.4346 33.9355C26.9951 33.496 26.3989 33.249 25.7773 33.249H14.8398Z" fill="#1D2B53"/>
</svg>
