<svg width="50" height="51" viewBox="0 0 50 51" fill="none" xmlns="http://www.w3.org/2000/svg">
<path d="M43.7539 6.6875H39.0664V9.8125L43.7539 9.81094V41.0625H39.0664V44.1875H43.7539C45.4773 44.1875 46.8789 42.7859 46.8789 41.0625V9.8125C46.8789 8.08906 45.4773 6.6875 43.7539 6.6875Z" fill="#1D2B53"/>
<path d="M25 30.126C26.7259 30.126 28.125 28.7269 28.125 27.001C28.125 25.2751 26.7259 23.876 25 23.876C23.2741 23.876 21.875 25.2751 21.875 27.001C21.875 28.7269 23.2741 30.126 25 30.126Z" fill="#1D2B53"/>
<path d="M34.3789 6.6875V44.1875C34.3789 45.9109 32.9773 47.3125 31.2539 47.3125H6.25391C4.53047 47.3125 3.12891 45.9109 3.12891 44.1875V6.6875C3.12891 4.96406 4.53047 3.5625 6.25391 3.5625H31.2539C32.9773 3.5625 34.3789 4.96406 34.3789 6.6875ZM6.25391 44.1875H31.2539V6.68594L6.25391 6.6875V44.1875Z" fill="#1D2B53"/>
</svg>
