<svg width="126" height="126" viewBox="0 0 126 126" fill="none" xmlns="http://www.w3.org/2000/svg">
<g clip-path="url(#clip0_812_1159)">
<path d="M0.015625 23.625C0.015625 19.4478 1.675 15.4418 4.62869 12.4881C7.58239 9.53437 11.5885 7.875 15.7656 7.875H110.266C114.443 7.875 118.449 9.53437 121.403 12.4881C124.356 15.4418 126.016 19.4478 126.016 23.625V102.375C126.016 106.552 124.356 110.558 121.403 113.512C118.449 116.466 114.443 118.125 110.266 118.125H15.7656C11.5885 118.125 7.58239 116.466 4.62869 113.512C1.675 110.558 0.015625 106.552 0.015625 102.375V23.625ZM7.89062 94.5V102.375C7.89062 104.464 8.72031 106.467 10.1972 107.943C11.674 109.42 13.677 110.25 15.7656 110.25H110.266C112.354 110.25 114.357 109.42 115.834 107.943C117.311 106.467 118.141 104.464 118.141 102.375V74.8125L88.3968 59.4799C87.6583 59.1099 86.8221 58.9816 86.0067 59.113C85.1912 59.2445 84.4377 59.629 83.8529 60.2122L54.6366 89.4285L33.6891 75.474C32.9328 74.9705 32.0256 74.744 31.1214 74.833C30.2172 74.922 29.3715 75.3209 28.7279 75.9622L7.89062 94.5ZM47.2656 43.3125C47.2656 40.1796 46.0211 37.1751 43.8058 34.9598C41.5906 32.7445 38.586 31.5 35.4531 31.5C32.3203 31.5 29.3157 32.7445 27.1004 34.9598C24.8852 37.1751 23.6406 40.1796 23.6406 43.3125C23.6406 46.4454 24.8852 49.4499 27.1004 51.6652C29.3157 53.8805 32.3203 55.125 35.4531 55.125C38.586 55.125 41.5906 53.8805 43.8058 51.6652C46.0211 49.4499 47.2656 46.4454 47.2656 43.3125Z" fill="#174568"/>
</g>
<defs>
<clipPath id="clip0_812_1159">
<rect width="126" height="126" fill="white"/>
</clipPath>
</defs>
</svg>
