<svg width="60" height="37" viewBox="0 0 60 37" fill="none" xmlns="http://www.w3.org/2000/svg">
<path d="M60.0006 18.7071C60.0006 28.584 51.9698 36.7071 42.0005 36.7071C32.1236 36.7071 24.0005 28.584 24.0005 18.7071C24.0005 8.83013 32.0313 0.707031 41.9082 0.707031C51.9698 0.707031 60.0006 8.83013 60.0006 18.7071Z" fill="#F9B50B"/>
<path d="M35.9078 18.7994C35.9078 17.5071 35.7232 16.2148 35.5386 15.0148H24.4616C24.5539 14.3686 24.7385 13.8148 24.9232 13.0763H34.8001C34.6155 12.4301 34.3386 11.784 34.0617 11.1378H25.6616C25.9385 10.4917 26.3078 9.93783 26.677 9.19937H33.0463C32.677 8.55321 32.2155 7.90705 31.6616 7.2609H28.1539C28.7078 6.61474 29.2616 6.06089 30.0001 5.41474C26.8616 2.46088 22.6155 0.707031 17.9078 0.707031C8.1231 0.983955 0 8.83013 0 18.7071C0 28.584 8.0308 36.7071 18.0001 36.7071C22.7078 36.7071 26.8616 34.861 30.0924 31.9994C30.7386 31.4456 31.2924 30.7994 31.9386 30.061H28.2462C27.7847 29.5071 27.3232 28.861 26.9539 28.2148H33.2309C33.6001 27.661 33.9693 27.0148 34.2463 26.2763H25.8462C25.5693 25.7225 25.2924 25.0763 25.1078 24.3379H34.9847C35.5386 22.6763 35.9078 20.8302 35.9078 18.7994Z" fill="#C8191C"/>
<path d="M24.3718 23.3224L24.6487 21.6608C24.5564 21.6608 24.3718 21.7532 24.1872 21.7532C23.541 21.7532 23.4487 21.3839 23.541 21.1993L24.0949 17.8762H25.1102L25.3872 16.0301H24.4641L24.6487 14.9224H22.7102C22.7102 14.9224 21.6025 21.1993 21.6025 21.9378C21.6025 23.0455 22.2487 23.5993 23.1718 23.5993C23.7256 23.5993 24.1872 23.4147 24.3718 23.3224Z" fill="white"/>
<path d="M25.0132 20.2769C25.0132 22.9539 26.8593 23.6 28.3363 23.6C29.7209 23.6 30.367 23.3231 30.367 23.3231L30.7363 21.477C30.7363 21.477 29.7209 21.9385 28.7055 21.9385C26.5824 21.9385 26.9517 20.3693 26.9517 20.3693H30.8286C30.8286 20.3693 31.1055 19.1693 31.1055 18.6154C31.1055 17.4154 30.4594 15.8462 28.3363 15.8462C26.4901 15.7539 25.0132 17.8769 25.0132 20.2769ZM28.3363 17.5077C29.3517 17.5077 29.167 18.7077 29.167 18.8H27.044C27.1363 18.7077 27.3209 17.5077 28.3363 17.5077Z" fill="white"/>
<path d="M40.4315 23.3231L40.8007 21.2C40.8007 21.2 39.8776 21.6616 39.1392 21.6616C37.8469 21.6616 37.2007 20.6462 37.2007 19.4462C37.2007 17.1385 38.3084 15.9385 39.693 15.9385C40.6161 15.9385 41.4469 16.4923 41.4469 16.4923L41.7238 14.4615C41.7238 14.4615 40.6161 14 39.5084 14C37.293 14 35.1699 15.9385 35.1699 19.5385C35.1699 21.9385 36.2776 23.5077 38.5853 23.5077C39.4161 23.6 40.4315 23.3231 40.4315 23.3231Z" fill="white"/>
<path d="M13.9389 15.7539C12.6466 15.7539 11.6312 16.1231 11.6312 16.1231L11.3543 17.7847C11.3543 17.7847 12.185 17.4155 13.4773 17.4155C14.1235 17.4155 14.6773 17.5078 14.6773 18.0616C14.6773 18.4308 14.585 18.5231 14.585 18.5231H13.7543C12.0927 18.5231 10.3389 19.1693 10.3389 21.3847C10.3389 23.1385 11.4466 23.5078 12.185 23.5078C13.4773 23.5078 14.1235 22.677 14.2158 22.677L14.1235 23.4155H15.6927L16.4312 18.1539C16.4312 15.8462 14.585 15.7539 13.9389 15.7539ZM14.3081 20.0001C14.3081 20.277 14.1235 21.8462 13.0158 21.8462C12.462 21.8462 12.2773 21.3847 12.2773 21.1078C12.2773 20.6462 12.5543 20.0001 14.0312 20.0001C14.2158 20.0001 14.3081 20.0001 14.3081 20.0001Z" fill="white"/>
<path d="M18.2765 23.5068C18.738 23.5068 21.138 23.5991 21.138 21.0145C21.138 18.6145 18.8303 19.076 18.8303 18.153C18.8303 17.6914 19.1995 17.5068 19.8457 17.5068C20.1226 17.5068 21.138 17.5991 21.138 17.5991L21.4149 15.8453C21.4149 15.8453 20.7688 15.6606 19.5688 15.6606C18.1841 15.6606 16.7072 16.2145 16.7072 18.153C16.7072 20.3684 19.1072 20.1837 19.1072 21.0145C19.1072 21.5684 18.4611 21.6607 17.9995 21.6607C17.1688 21.6607 16.2457 21.3837 16.2457 21.3837L15.9688 23.1376C16.1534 23.3222 16.7072 23.5068 18.2765 23.5068Z" fill="white"/>
<path d="M56.3085 14.2764L55.9392 16.861C55.9392 16.861 55.2008 15.9379 54.0931 15.9379C52.3392 15.9379 50.8623 18.061 50.8623 20.5533C50.8623 22.1225 51.6008 23.6918 53.2623 23.6918C54.37 23.6918 55.1085 22.9533 55.1085 22.9533L55.0162 23.5995H56.9546L58.3393 14.461L56.3085 14.2764ZM55.3854 19.261C55.3854 20.2764 54.9239 21.661 53.8162 21.661C53.17 21.661 52.8008 21.1072 52.8008 20.0918C52.8008 18.5225 53.4469 17.5995 54.37 17.5995C55.0162 17.6918 55.3854 18.1533 55.3854 19.261Z" fill="white"/>
<path d="M3.50973 23.4149L4.61743 16.5841L4.80205 23.4149H6.09436L8.58667 16.5841L7.57129 23.4149H9.60206L11.1713 14.2764H8.03283L6.09436 19.9072L6.00205 14.2764H3.23281L1.66357 23.4149H3.50973Z" fill="white"/>
<path d="M33.0479 23.4149C33.6017 20.2765 33.694 17.6918 35.0787 18.1534C35.2633 16.9534 35.5402 16.3995 35.7248 15.938H35.3556C34.5248 15.938 33.7864 17.0457 33.7864 17.0457L33.971 16.0303H32.1248L30.9248 23.4149H33.0479Z" fill="white"/>
<path d="M44.8603 15.7539C43.568 15.7539 42.5526 16.1231 42.5526 16.1231L42.2756 17.7847C42.2756 17.7847 43.1064 17.4155 44.3987 17.4155C45.0449 17.4155 45.5987 17.5078 45.5987 18.0616C45.5987 18.4308 45.5064 18.5231 45.5064 18.5231H44.6757C43.0141 18.5231 41.2603 19.1693 41.2603 21.3847C41.2603 23.1385 42.368 23.5078 43.1064 23.5078C44.3987 23.5078 45.0449 22.677 45.1372 22.677L45.0449 23.4155H46.7987L47.5372 18.1539C47.5372 15.8462 45.5064 15.7539 44.8603 15.7539ZM45.3218 20.0001C45.3218 20.277 45.1372 21.8462 44.0295 21.8462C43.4756 21.8462 43.291 21.3847 43.291 21.1078C43.291 20.6462 43.568 20.0001 45.0449 20.0001C45.2295 20.0001 45.2295 20.0001 45.3218 20.0001Z" fill="white"/>
<path d="M49.0171 23.4149C49.571 20.2765 49.6633 17.6918 51.0479 18.1534C51.2325 16.9534 51.5094 16.3995 51.6941 15.938H51.3248C50.4941 15.938 49.7556 17.0457 49.7556 17.0457L49.9402 16.0303H48.094L46.894 23.4149H49.0171Z" fill="white"/>
</svg>
