<svg width="27" height="37" viewBox="0 0 27 37" fill="none" xmlns="http://www.w3.org/2000/svg">
<path d="M21.9616 23.74V35.1933C21.9616 35.3408 21.9225 35.4856 21.8483 35.613C21.7741 35.7404 21.6674 35.8458 21.5391 35.9185C21.4108 35.9912 21.2656 36.0286 21.1181 36.0268C20.9707 36.025 20.8264 35.9841 20.6999 35.9083L13.6283 31.665L6.55659 35.9083C6.42999 35.9842 6.28552 36.0251 6.13795 36.0268C5.99037 36.0285 5.84499 35.991 5.71666 35.9181C5.58833 35.8452 5.48167 35.7395 5.40757 35.6119C5.33347 35.4843 5.2946 35.3392 5.29492 35.1917V23.7417C3.1385 22.0151 1.57158 19.6615 0.810687 17.0059C0.049798 14.3503 0.132515 11.524 1.04741 8.91745C1.9623 6.31092 3.66419 4.05291 5.91789 2.45546C8.1716 0.858012 10.8658 0 13.6283 0C16.3907 0 19.0849 0.858012 21.3386 2.45546C23.5923 4.05291 25.2942 6.31092 26.2091 8.91745C27.124 11.524 27.2067 14.3503 26.4458 17.0059C25.6849 19.6615 24.118 22.0151 21.9616 23.7417M8.62826 25.6983V30.78L13.6283 27.78L18.6283 30.78V25.6967C17.0396 26.3386 15.3417 26.6674 13.6283 26.665C11.9148 26.6674 10.217 26.3403 8.62826 25.6983ZM13.6283 23.3317C16.2804 23.3317 18.824 22.2781 20.6993 20.4027C22.5747 18.5274 23.6283 15.9838 23.6283 13.3317C23.6283 10.6795 22.5747 8.13596 20.6993 6.2606C18.824 4.38523 16.2804 3.33166 13.6283 3.33166C10.9761 3.33166 8.43255 4.38523 6.55719 6.2606C4.68182 8.13596 3.62826 10.6795 3.62826 13.3317C3.62826 15.9838 4.68182 18.5274 6.55719 20.4027C8.43255 22.2781 10.9761 23.3317 13.6283 23.3317Z" fill="black"/>
</svg>
