<svg width="20" height="24" viewBox="0 0 20 24" fill="none" xmlns="http://www.w3.org/2000/svg">
<circle cx="10" cy="12" r="10" fill="#6BC049"/>
<path d="M6.552 15.472C7.576 14.6187 8.392 13.9093 9 13.344C9.608 12.768 10.1147 12.1707 10.52 11.552C10.9253 10.9333 11.128 10.3253 11.128 9.728C11.128 9.184 11 8.75733 10.744 8.448C10.488 8.13867 10.0933 7.984 9.56 7.984C9.02667 7.984 8.616 8.16533 8.328 8.528C8.04 8.88 7.89067 9.36533 7.88 9.984H5.704C5.74667 8.704 6.12533 7.73333 6.84 7.072C7.56533 6.41067 8.48267 6.08 9.592 6.08C10.808 6.08 11.7413 6.40533 12.392 7.056C13.0427 7.696 13.368 8.544 13.368 9.6C13.368 10.432 13.144 11.2267 12.696 11.984C12.248 12.7413 11.736 13.4027 11.16 13.968C10.584 14.5227 9.832 15.1947 8.904 15.984H13.624V17.84H5.72V16.176L6.552 15.472Z" fill="white"/>
</svg>
