<svg width="146" height="37" viewBox="0 0 146 37" fill="none" xmlns="http://www.w3.org/2000/svg">
<path d="M55.3587 15.7981C54.9821 18.6224 52.7226 18.6224 50.6515 18.6224H49.5217L50.4632 13.1621C50.4632 12.7855 50.8397 12.5972 51.2163 12.5972H51.7812C53.2875 12.5972 54.6055 12.5972 55.3587 13.3504C55.3587 14.1035 55.3587 14.8567 55.3587 15.7981ZM54.4172 8.2666H46.3209C45.756 8.2666 45.3794 8.64318 45.1911 9.20804L41.9902 29.9197C41.9902 30.2962 42.1785 30.6728 42.7434 30.6728H46.5092C47.074 30.6728 47.4506 30.2962 47.6389 29.7314L48.5803 24.0828C48.5803 23.5179 49.1452 23.1413 49.71 23.1413H52.3461C57.6181 23.1413 60.6307 20.5053 61.5721 15.4215C61.9487 13.1621 61.5721 11.4675 60.6307 10.1495C59.1244 9.01975 57.0533 8.2666 54.4172 8.2666Z" fill="#263577"/>
<path d="M73.0562 23.329C72.6797 25.5884 70.9851 27.0947 68.7257 27.0947C67.5959 27.0947 66.6545 26.7182 66.0896 25.965C65.5248 25.2119 65.3365 24.2704 65.5247 23.329C65.9013 21.0695 67.5959 19.5632 69.8554 19.5632C70.9851 19.5632 71.9265 19.9398 72.4914 20.6929C72.868 21.2578 73.2445 22.1993 73.0562 23.329ZM78.3283 15.7975H74.5626C74.186 15.7975 73.9977 15.9858 73.8094 16.3623L73.6211 17.4921L73.4328 17.1155C72.6797 15.9858 70.7968 15.4209 68.914 15.4209C64.5833 15.4209 61.0059 18.6218 60.2527 23.1407C59.8761 25.4001 60.441 27.4713 61.759 28.9776C62.8887 30.2956 64.5833 30.8605 66.6545 30.8605C70.0437 30.8605 71.9265 28.601 71.9265 28.601L71.7383 29.7308C71.7383 30.1073 71.9265 30.4839 72.4914 30.4839H75.8806C76.4454 30.4839 76.822 30.1073 77.0103 29.5425L79.0815 16.3623C79.0815 16.174 78.8932 15.7975 78.3283 15.7975Z" fill="#263577"/>
<path d="M98.85 15.7983H94.8959C94.5194 15.7983 94.1428 15.9866 93.9545 16.3632L88.6825 24.2713L86.423 16.7398C86.2347 16.1749 85.8581 15.9866 85.2933 15.9866H81.5275C81.1509 15.9866 80.7744 16.3632 80.9627 16.9281L85.2933 29.355L81.3392 35.0037C80.9626 35.3802 81.3393 36.1334 81.9041 36.1334H85.8582C86.2347 36.1334 86.6113 35.9451 86.7996 35.5685L99.6031 16.9281C99.7914 16.3632 99.4149 15.7983 98.85 15.7983Z" fill="#263577"/>
<path d="M112.594 15.7981C112.217 18.6224 109.957 18.6224 107.886 18.6224H106.757L107.698 13.1621C107.698 12.7855 108.075 12.5972 108.451 12.5972H109.016C110.522 12.5972 111.84 12.5972 112.594 13.3504C112.782 14.1035 112.782 14.8567 112.594 15.7981ZM111.652 8.2666H103.556C102.991 8.2666 102.614 8.64318 102.426 9.20804L99.2251 29.9197C99.2251 30.2962 99.4134 30.6728 99.9783 30.6728H104.121C104.497 30.6728 104.874 30.4845 104.874 29.9197L105.815 24.0828C105.815 23.5179 106.38 23.1413 106.945 23.1413H109.581C114.853 23.1413 117.866 20.5053 118.807 15.4215C119.184 13.1621 118.807 11.4675 117.866 10.1495C116.548 9.01975 114.476 8.2666 111.652 8.2666Z" fill="#2199D6"/>
<path d="M130.484 23.329C130.107 25.5884 128.413 27.0947 126.153 27.0947C125.024 27.0947 124.082 26.7182 123.517 25.965C122.953 25.2119 122.764 24.2704 122.952 23.329C123.329 21.0695 125.024 19.5632 127.283 19.5632C128.413 19.5632 129.354 19.9398 129.919 20.6929C130.296 21.2578 130.672 22.1993 130.484 23.329ZM135.756 15.7975H131.99C131.614 15.7975 131.425 15.9858 131.237 16.3623L131.049 17.4921L130.861 17.1155C130.107 15.9858 128.225 15.4209 126.342 15.4209C122.011 15.4209 118.434 18.6218 117.68 23.1407C117.304 25.4001 117.869 27.4713 119.187 28.9776C120.316 30.2956 122.011 30.8605 124.082 30.8605C127.471 30.8605 129.354 28.601 129.354 28.601L129.166 29.7308C129.166 30.1073 129.354 30.4839 129.919 30.4839H133.308C133.873 30.4839 134.25 30.1073 134.438 29.5425L136.509 16.3623C136.509 16.174 136.133 15.7975 135.756 15.7975Z" fill="#2199D6"/>
<path d="M140.273 8.83146L136.884 29.9197C136.884 30.2962 137.072 30.6728 137.637 30.6728H141.026C141.591 30.6728 141.968 30.2962 142.156 29.7314L145.357 9.01975C145.357 8.64318 145.168 8.2666 144.604 8.2666H140.838C140.65 8.2666 140.461 8.64318 140.273 8.83146Z" fill="#2199D6"/>
<path d="M8.47214 34.6276L9.03698 30.6735H7.71897H1.12891L5.64782 1.86553C5.64782 1.86553 5.64781 1.67725 5.83609 1.67725H6.02439H17.1333C20.7108 1.67725 23.3468 2.4304 24.6648 3.9367C25.2297 4.68985 25.6063 5.443 25.7946 6.19615C25.9829 7.13759 25.9829 8.07902 25.7946 9.39703V10.1502L26.3595 10.5268C26.9243 10.715 27.3009 11.0916 27.6775 11.4682C28.2423 12.0331 28.6189 12.7862 28.6189 13.7277C28.8072 14.6691 28.8072 15.7988 28.4306 17.1168C28.054 18.6231 27.6775 19.7528 27.1126 20.8826C26.5477 21.824 25.7946 22.5772 25.0414 23.3303C24.2883 23.8952 23.1585 24.2717 22.2171 24.6483C21.0874 24.8366 19.9577 25.0249 18.6397 25.0249H17.6982C17.1334 25.0249 16.5685 25.2132 16.0036 25.5898C15.6271 25.9663 15.2505 26.5312 15.0622 27.0961V27.4726L13.9325 34.4393V34.6276V34.8158C13.9325 34.8158 13.9325 34.8158 13.7442 34.8158H8.47214V34.6276Z" fill="#263577"/>
<path d="M27.1149 9.39551C27.1149 9.5838 27.1149 9.77209 26.9266 9.96038C25.4203 17.4919 20.5249 19.9396 14.1231 19.9396H10.9222C10.169 19.9396 9.4159 20.5045 9.4159 21.2576L7.7213 31.8017L7.34473 34.8143C7.34473 35.3792 7.72129 35.7558 8.09787 35.7558H13.9348C14.6879 35.7558 15.2528 35.1909 15.2528 34.626V34.2495L16.3825 27.4711V27.0945C16.5708 26.3414 17.1357 25.9648 17.7005 25.9648H18.642C24.2906 25.9648 28.6212 23.7054 29.7509 17.1153C30.3158 14.291 29.9392 12.0315 28.6212 10.5252C28.2446 10.1487 27.6798 9.77208 27.1149 9.39551Z" fill="#2199D6"/>
<path d="M25.6058 8.83146C25.4175 8.83146 25.2292 8.64318 24.8527 8.64318C24.6644 8.64318 24.2878 8.45489 24.0995 8.45489C23.1581 8.2666 22.2166 8.2666 21.2752 8.2666H12.614C12.4257 8.2666 12.2374 8.2666 12.0491 8.45489C11.6725 8.64317 11.296 9.01975 11.296 9.39632L9.41309 21.0702V21.4467C9.60137 20.6936 10.1662 20.1287 10.9194 20.1287H14.1203C20.5221 20.1287 25.4175 17.4927 26.9238 10.1495C26.9238 9.96119 26.9238 9.7729 27.1121 9.58462C26.7355 9.39633 26.3589 9.20804 25.9824 9.01975C25.7941 8.83147 25.6058 8.83146 25.6058 8.83146Z" fill="#252C5E"/>
<path d="M11.2973 9.39638C11.2973 9.01981 11.6738 8.64323 12.0504 8.45495C12.2387 8.45495 12.427 8.26666 12.6153 8.26666H21.2765C22.2179 8.26666 23.3476 8.26666 24.1008 8.45495C24.2891 8.45495 24.6657 8.45495 24.854 8.64324C25.0422 8.64324 25.2305 8.83152 25.6071 8.83152C25.7954 8.83152 25.7954 8.83153 25.9837 9.01981C26.3602 9.2081 26.7368 9.39639 27.1134 9.58468C27.49 6.76036 27.1134 4.87748 25.6071 3.1829C23.9125 1.30002 20.8999 0.546875 17.1341 0.546875H6.0252C5.27205 0.546875 4.51889 1.11173 4.51889 1.86488L0 30.8612C0 31.426 0.376575 31.9909 0.941438 31.9909H7.71977L9.41438 21.0702L11.2973 9.39638Z" fill="#263577"/>
</svg>
