<svg width="12" height="12" viewBox="0 0 12 12" fill="none" xmlns="http://www.w3.org/2000/svg">
<path d="M9.25969 0.705078H3.47969C2.07136 0.705078 0.929688 1.84675 0.929688 3.25508V9.03508C0.929688 10.4434 2.07136 11.5851 3.47969 11.5851H9.25969C10.668 11.5851 11.8097 10.4434 11.8097 9.03508V3.25508C11.8097 1.84675 10.668 0.705078 9.25969 0.705078Z" fill="#001E36"/>
<path d="M3.37891 8.27213V3.60733C3.37891 3.57558 3.39251 3.55747 3.42425 3.55747C3.50131 3.55747 3.57385 3.55747 3.67811 3.55293C3.78691 3.54838 3.90025 3.54838 4.02265 3.54387C4.14505 3.53933 4.27651 3.53933 4.41705 3.53478C4.55756 3.53027 4.69356 3.53027 4.82956 3.53027C5.20131 3.53027 5.50956 3.57558 5.76345 3.67078C5.99102 3.74807 6.19853 3.87505 6.37091 4.04253C6.51698 4.18909 6.62985 4.36533 6.70185 4.55933C6.76985 4.74973 6.80611 4.94467 6.80611 5.14867C6.80611 5.53853 6.71545 5.86038 6.53411 6.11427C6.35276 6.36813 6.09891 6.55853 5.80425 6.66733C5.49596 6.78067 5.15596 6.82147 4.78425 6.82147C4.67545 6.82147 4.60291 6.82147 4.55756 6.81693C4.51225 6.81238 4.44876 6.81238 4.36265 6.81238V8.26758C4.36716 8.29933 4.34451 8.32653 4.31276 8.33107H3.43331C3.39705 8.33107 3.37891 8.31293 3.37891 8.27213ZM4.36716 4.43238V5.95558C4.43065 5.96013 4.48956 5.96467 4.54396 5.96467H4.78425C4.96105 5.96467 5.13785 5.93747 5.30556 5.88307C5.45065 5.84227 5.57756 5.75613 5.67731 5.64278C5.77251 5.52947 5.81785 5.37533 5.81785 5.17587C5.82211 5.0342 5.78593 4.89424 5.71356 4.77238C5.63651 4.65453 5.52771 4.56387 5.39625 4.51398C5.22851 4.44598 5.04716 4.41878 4.86131 4.42333C4.74345 4.42333 4.63916 4.42333 4.55305 4.42787C4.46236 4.42333 4.39891 4.42787 4.36716 4.43238ZM9.63491 5.67907C9.49891 5.60653 9.35385 5.55667 9.19971 5.52493C9.03196 5.48867 8.86425 5.46598 8.69196 5.46598C8.60131 5.46147 8.50611 5.47507 8.41996 5.49773C8.36105 5.51133 8.31116 5.54307 8.27945 5.58838C8.25676 5.62467 8.24316 5.66998 8.24316 5.71078C8.24316 5.75158 8.26131 5.79238 8.28851 5.82867C8.32931 5.87853 8.38371 5.91933 8.44265 5.95107C8.54775 6.00551 8.65514 6.05542 8.76451 6.10067C9.00931 6.18227 9.24505 6.29558 9.46265 6.43158C9.61225 6.52678 9.73465 6.65373 9.82076 6.80787C9.89331 6.95293 9.92956 7.11158 9.92505 7.27478C9.92956 7.48787 9.86611 7.70093 9.74825 7.87773C9.6218 8.05869 9.44536 8.19889 9.24051 8.28118C9.01836 8.37638 8.74636 8.42627 8.41996 8.42627C8.21145 8.42627 8.00745 8.40813 7.80345 8.36733C7.64357 8.33971 7.48807 8.29093 7.34105 8.22227C7.30931 8.20413 7.28665 8.17238 7.29116 8.13613V7.34733C7.29116 7.33373 7.29571 7.31558 7.30931 7.30653C7.32291 7.29747 7.33651 7.30198 7.35011 7.31107C7.52691 7.41533 7.71276 7.48787 7.91225 7.53318C8.08451 7.57853 8.26585 7.60118 8.44716 7.60118C8.61945 7.60118 8.74185 7.57853 8.82345 7.53773C8.89596 7.50598 8.94585 7.42893 8.94585 7.34733C8.94585 7.28387 8.90956 7.22493 8.83705 7.16598C8.76451 7.10707 8.61491 7.03907 8.39276 6.95293C8.16489 6.87263 7.94849 6.7629 7.74905 6.62653C7.607 6.52527 7.4893 6.39363 7.40451 6.24118C7.33196 6.09613 7.29571 5.93747 7.30025 5.77878C7.30025 5.58387 7.35465 5.39798 7.45436 5.23027C7.56771 5.04893 7.73545 4.90387 7.93036 4.81318C8.14345 4.70438 8.41091 4.65453 8.73276 4.65453C8.91865 4.65453 9.10905 4.66813 9.29491 4.69533C9.43091 4.71347 9.56236 4.74973 9.68476 4.79958C9.70291 4.80413 9.72105 4.82227 9.73011 4.84038C9.73465 4.85853 9.73916 4.87667 9.73916 4.89478V5.63373C9.73916 5.65187 9.73011 5.66998 9.71651 5.67907C9.67571 5.68813 9.65305 5.68813 9.63491 5.67907Z" fill="#31A8FF"/>
</svg>
