<svg width="27" height="25" viewBox="0 0 27 25" fill="none" xmlns="http://www.w3.org/2000/svg">
<path d="M18.9737 3.15144H24.2933C23.7606 8.45188 21.3599 13.3587 17.5551 16.9237C13.7196 20.5123 8.73874 22.4865 3.58212 22.4622H2.21674V17.2745L6.72072 15.6499L8.21022 18.2714L9.25642 20.2284L11.1538 19.0837C14.5509 17.0308 17.4458 14.1874 19.612 10.7761L20.9065 8.65298L18.7431 7.47144L16.9699 6.51144L18.9027 3.15144M18.9027 0.84375C18.5203 0.846726 18.1451 0.951833 17.8129 1.14901C17.4807 1.34619 17.2026 1.62884 17.0054 1.9699L15.1435 5.3299C14.9856 5.59845 14.8826 5.89804 14.8409 6.20993C14.7992 6.52181 14.8198 6.8393 14.9014 7.14252C14.9829 7.44575 15.1237 7.7282 15.3148 7.97221C15.506 8.21623 15.7435 8.41655 16.0124 8.56067L17.7856 9.52067C15.806 12.6328 13.1595 15.2239 10.0544 17.0899L8.49394 14.4868C8.31132 14.1592 8.05402 13.8833 7.74477 13.6837C7.43552 13.4841 7.08382 13.3668 6.72072 13.3422C6.47306 13.3416 6.22715 13.3854 5.9937 13.4714L1.40106 15.0961C0.982856 15.2683 0.624877 15.569 0.374669 15.9581C0.124462 16.3472 -0.00613557 16.8063 0.000221528 17.2745V22.5361C0.000221528 23.1481 0.233747 23.7351 0.649426 24.1678C1.0651 24.6006 1.62889 24.8438 2.21674 24.8438H3.54666C9.23776 24.8453 14.7283 22.655 18.9612 18.6945C23.1941 14.7339 25.8702 9.28315 26.4744 3.39144C26.504 3.06942 26.4687 2.74451 26.3709 2.43748C26.2731 2.13044 26.1148 1.84802 25.9062 1.60826C25.6976 1.3685 25.4433 1.17668 25.1595 1.04504C24.8756 0.913404 24.5686 0.844847 24.2578 0.84375H18.9027Z" fill="white"/>
</svg>
