<svg width="51" height="33" viewBox="0 0 51 33" fill="none" xmlns="http://www.w3.org/2000/svg">
<path d="M47.7552 32.8427H3.25191C1.46617 32.8427 0.0078125 31.3844 0.0078125 29.5986V3.81588C0.0078125 2.03014 1.46617 0.571777 3.25191 0.571777H47.7552C49.5409 0.571777 50.9993 2.03014 50.9993 3.81588V29.5986C50.9993 31.3844 49.5409 32.8427 47.7552 32.8427Z" fill="#FFC107"/>
<path d="M0.000488281 6.02686H51.0005V12.8595H0.000488281V6.02686Z" fill="#424242"/>
<path d="M46.8444 21.0178H4.18636C3.76969 21.0178 3.42529 20.6777 3.42529 20.2567V16.681C3.42529 16.2643 3.76543 15.9199 4.18636 15.9199H46.8444C47.2611 15.9199 47.6054 16.2601 47.6054 16.681V20.2567C47.6012 20.6734 47.2611 21.0178 46.8444 21.0178Z" fill="white"/>
<path d="M8.48193 19.4638C8.72003 19.0046 8.78381 18.4689 8.9964 17.997C9.20899 17.525 9.67243 17.0871 10.1826 17.1679C10.6546 17.2444 10.948 17.7164 11.1223 18.1585C11.3646 18.7751 11.4964 19.4341 11.5134 20.0974C11.5177 20.2334 11.5092 20.3822 11.4199 20.4885C11.2626 20.6671 10.9395 20.5778 10.8162 20.3737C10.6929 20.1696 10.7226 19.9103 10.7779 19.6764C11.0415 18.5922 11.8919 17.6696 12.9505 17.3209C13.0611 17.2827 13.1759 17.2529 13.2907 17.2742C13.5373 17.3209 13.6733 17.5761 13.7839 17.7971C14.0433 18.3031 14.3579 18.7836 14.7193 19.2215C14.8638 19.4001 15.0297 19.5744 15.2508 19.6424C15.9778 19.855 16.3987 18.7836 17.1003 18.4987C17.9421 18.1585 18.7627 19.0472 19.6556 19.213C20.9609 19.4553 21.6539 18.4392 22.7976 18.1798C22.9507 18.1458 23.1165 18.1245 23.2696 18.1671C23.5502 18.2478 23.7245 18.5157 23.8904 18.758C24.2773 19.3278 24.83 19.889 25.5188 19.8933C25.9567 19.8975 26.3606 19.6722 26.7603 19.4808C28.1761 18.8048 29.8471 18.5242 31.3267 19.0429" stroke="#424242" stroke-width="2" stroke-miterlimit="10" stroke-linecap="round" stroke-linejoin="round"/>
</svg>
