<svg width="71" height="23" viewBox="0 0 71 23" fill="none" xmlns="http://www.w3.org/2000/svg">
<path d="M66.2258 1.11865H61.7625C60.4131 1.11865 59.3751 1.53385 58.7523 2.88324L50.2407 22.2937H56.2611C56.2611 22.2937 57.2991 19.6988 57.5067 19.076C58.1295 19.076 64.0461 19.076 64.8765 19.076C65.084 19.8026 65.603 22.19 65.603 22.19H71.0006L66.2258 1.11865ZM59.1675 14.7164C59.6865 13.4708 61.4511 8.79982 61.4511 8.79982C61.4511 8.90361 61.9701 7.55422 62.1777 6.82762L62.5929 8.69602C62.5929 8.69602 63.7347 13.7822 63.9423 14.8202H59.1675V14.7164Z" fill="#3362AB"/>
<path d="M50.6555 15.34C50.6555 19.6996 46.7111 22.606 40.5869 22.606C37.9919 22.606 35.5008 22.087 34.1514 21.4642L34.9818 16.6894L35.7084 17.0008C37.5768 17.8312 38.8223 18.1426 41.1059 18.1426C42.7667 18.1426 44.5313 17.5198 44.5313 16.0666C44.5313 15.1324 43.8047 14.5096 41.5211 13.4716C39.3413 12.4336 36.435 10.7729 36.435 7.76267C36.435 3.61069 40.4831 0.808105 46.1921 0.808105C48.3719 0.808105 50.2403 1.2233 51.3821 1.7423L50.5517 6.30948L50.1365 5.89428C49.0985 5.47908 47.7491 5.06388 45.7769 5.06388C43.5971 5.16768 42.5591 6.10188 42.5591 6.93228C42.5591 7.86647 43.8047 8.59307 45.7769 9.52726C49.0985 11.0843 50.6555 12.8488 50.6555 15.34Z" fill="#3362AB"/>
<path d="M0.000488281 1.32682L0.104288 0.911621H9.03104C10.2766 0.911621 11.2108 1.32682 11.5222 2.67621L13.4944 12.0182C11.5222 7.03579 6.95505 2.98761 0.000488281 1.32682Z" fill="#F9B50B"/>
<path d="M26.0537 1.11894L17.0231 22.1902H10.899L5.70898 4.54432C9.44577 6.93171 12.5598 10.6685 13.7015 13.2635L14.3243 15.4433L19.9295 1.01514H26.0537V1.11894Z" fill="#3362AB"/>
<path d="M28.4411 1.01514H34.1501L30.5171 22.1902H24.8081L28.4411 1.01514Z" fill="#3362AB"/>
</svg>
