<svg width="12" height="12" viewBox="0 0 12 12" fill="none" xmlns="http://www.w3.org/2000/svg">
<path d="M9.84328 0.705078H2.57578C1.57822 0.705078 0.769531 1.5345 0.769531 2.55764V9.73251C0.769531 10.7557 1.57822 11.5851 2.57578 11.5851H9.84328C10.8408 11.5851 11.6495 10.7557 11.6495 9.73251V2.55764C11.6495 1.5345 10.8408 0.705078 9.84328 0.705078Z" fill="#470137"/>
<path d="M6.48712 3.56637L5.12954 5.86455L6.58198 8.30492C6.59133 8.32201 6.59392 8.34206 6.58929 8.36106C6.58703 8.36917 6.58219 8.37118 6.57475 8.37148L6.56651 8.37135L6.55648 8.37109C6.55104 8.37109 6.54496 8.37135 6.5382 8.37248H5.491L5.47043 8.37214C5.41399 8.37061 5.37332 8.36233 5.34854 8.31987C5.25165 8.12627 5.15432 7.93289 5.05657 7.73974C4.96912 7.56746 4.8793 7.39647 4.78712 7.22682L4.7464 7.1521C4.63614 6.95112 4.52788 6.749 4.42162 6.54577H4.41431C4.31617 6.74688 4.2152 6.94651 4.11141 7.14461C4.00673 7.34425 3.90333 7.54267 3.8012 7.73974C3.69901 7.93696 3.5944 8.13286 3.48738 8.32737C3.47017 8.36704 3.44157 8.37532 3.40174 8.37667L3.38517 8.37693H2.38527L2.38094 8.37706L2.36666 8.37837C2.35871 8.37885 2.35395 8.37711 2.35242 8.36481C2.34968 8.34656 2.35358 8.32791 2.36338 8.31242L3.772 5.93939L2.39985 3.55896C2.38527 3.53908 2.38285 3.52286 2.39254 3.51031C2.39792 3.50392 2.40469 3.49889 2.41229 3.49564C2.4199 3.49239 2.42813 3.49099 2.43636 3.49157H3.46545C3.48789 3.49031 3.51033 3.49415 3.53116 3.50281C3.54858 3.51297 3.56358 3.52705 3.57493 3.54401C3.66252 3.74365 3.75985 3.94329 3.86691 4.14284C3.97313 4.34114 4.0814 4.53828 4.19169 4.73422C4.30029 4.92714 4.40134 5.12442 4.49459 5.32561H4.5019C4.59746 5.12447 4.696 4.92483 4.79749 4.72677C4.89715 4.53214 4.99936 4.33621 5.104 4.13909C5.2073 3.94451 5.30828 3.74863 5.40689 3.5515C5.4125 3.53302 5.42253 3.51628 5.43609 3.50281C5.45412 3.49345 5.47437 3.48955 5.49449 3.49157H6.45061C6.4594 3.48932 6.46866 3.49006 6.47701 3.49368C6.48535 3.4973 6.49232 3.50359 6.49688 3.51163C6.50143 3.51966 6.50332 3.52899 6.50226 3.53822C6.50119 3.54745 6.49724 3.55607 6.49098 3.56279L6.48712 3.56637ZM8.63209 8.46904L8.58177 8.4696C8.24582 8.47485 7.91296 8.40326 7.60737 8.26002C7.3227 8.12489 7.08473 7.90431 6.92495 7.62745C6.76383 7.35301 6.68113 7.011 6.67696 6.60156L6.67679 6.56822C6.67406 6.22465 6.75967 5.88641 6.92499 5.58758C7.09045 5.29181 7.33166 5.04812 7.6225 4.88291L7.64754 4.86896C7.96374 4.68928 8.34573 4.59944 8.79342 4.59944L8.81297 4.59966L8.83533 4.6004L8.8604 4.60154L8.88828 4.60319L8.93512 4.60659L8.98816 4.61095L9.02696 4.61444V3.13971C9.02696 3.10484 9.04158 3.08732 9.07073 3.08732H9.99039C9.99634 3.08644 10.0024 3.087 10.0081 3.08895C10.0138 3.09089 10.019 3.09417 10.0232 3.09853C10.0275 3.10289 10.0307 3.1082 10.0326 3.11405C10.0345 3.11989 10.035 3.12611 10.0342 3.13221V7.55635C10.0342 7.63063 10.037 7.71066 10.0426 7.79627L10.0562 7.99046L10.0634 8.1028C10.0643 8.11835 10.0606 8.13382 10.0528 8.14719C10.045 8.16055 10.0334 8.17118 10.0196 8.17768C9.78234 8.27916 9.53522 8.35442 9.28243 8.40221C9.06782 8.44284 8.8503 8.46519 8.63209 8.46904ZM9.02696 7.54136V5.49774C8.98751 5.48679 8.94724 5.47928 8.90656 5.47529C8.85683 5.47016 8.80689 5.46766 8.75691 5.4678C8.5798 5.466 8.40478 5.50704 8.24602 5.58758C8.09139 5.66642 7.95935 5.78507 7.86284 5.93194C7.76649 6.07648 7.71664 6.26523 7.71337 6.49817L7.7132 6.52332C7.70965 6.68649 7.73563 6.84892 7.78983 7.00237C7.83395 7.12604 7.90369 7.23843 7.99425 7.33178C8.08092 7.41765 8.18584 7.48171 8.30076 7.51891C8.42215 7.55923 8.54903 7.57946 8.67663 7.57885C8.74472 7.57885 8.80796 7.57632 8.86639 7.57131C8.913 7.56771 8.9592 7.55983 9.00443 7.54777L9.02696 7.54136Z" fill="#FF61F6"/>
</svg>
