<svg width="21" height="22" viewBox="0 0 21 22" fill="none" xmlns="http://www.w3.org/2000/svg">
<path d="M19.8001 10.9997L11.3565 19.4433C10.1844 20.5853 8.60962 21.2196 6.97322 21.209C5.33683 21.1983 3.77048 20.5436 2.61334 19.3864C1.45621 18.2293 0.80143 16.6629 0.790781 15.0265C0.780133 13.3901 1.41447 11.8154 2.55645 10.6433L11.2523 1.94745C12.0303 1.16948 13.0854 0.732422 14.1857 0.732422C15.2859 0.732422 16.341 1.16948 17.119 1.94745C17.897 2.72542 18.334 3.78057 18.334 4.88078C18.334 5.98099 17.897 7.03615 17.119 7.81412L8.67392 16.2592C8.28493 16.6482 7.75736 16.8667 7.20725 16.8667C6.65714 16.8667 6.12957 16.6482 5.74058 16.2592C5.3516 15.8702 5.13307 15.3426 5.13307 14.7925C5.13307 14.2424 5.3516 13.7148 5.74058 13.3258L13.9334 5.13305" stroke="black"/>
</svg>
