<svg width="29" height="29" viewBox="0 0 29 29" fill="none" xmlns="http://www.w3.org/2000/svg">
<path d="M28.2731 14.1375C28.2731 6.33018 21.9439 0.000976562 14.1366 0.000976562C6.3292 0.000976562 0 6.33018 0 14.1375C0 21.1934 5.16956 27.0419 11.9277 28.1023V18.2239H8.33836V14.1375H11.9277V11.0231C11.9277 7.4801 14.0383 5.52307 17.2674 5.52307C18.814 5.52307 20.4317 5.79917 20.4317 5.79917V9.27809H18.6492C16.8931 9.27809 16.3454 10.3678 16.3454 11.4858V14.1375H20.2661L19.6393 18.2239H16.3454V28.1023C23.1035 27.0419 28.2731 21.1935 28.2731 14.1375Z" fill="#1877F2"/>
<path d="M19.6389 18.2233L20.2656 14.1369H16.3449V11.4852C16.3449 10.3671 16.8926 9.27748 18.6487 9.27748H20.4313V5.79857C20.4313 5.79857 18.8135 5.52246 17.2668 5.52246C14.0378 5.52246 11.9273 7.47949 11.9273 11.0225V14.1369H8.33789V18.2233H11.9273V28.1017C12.658 28.2163 13.3965 28.2737 14.1361 28.2735C14.8757 28.2737 15.6142 28.2163 16.3449 28.1017V18.2233H19.6389Z" fill="white"/>
</svg>
