<svg width="36" height="36" viewBox="0 0 36 36" fill="none" xmlns="http://www.w3.org/2000/svg">
<path d="M17.7939 5.90918C17.7939 3.00969 20.1444 0.65918 23.0439 0.65918H24.6189V2.23418C24.6189 5.13368 22.2684 7.48418 19.3689 7.48418H17.7939V5.90918ZM24.4716 7.52099C25.3731 7.57965 27.7461 7.80167 29.8844 9.44559C30.5126 9.92858 31.1153 10.5303 31.6496 11.2766L32.6481 12.6714L31.1328 13.4749C31.1118 13.4866 30.8379 13.6397 30.4688 13.9357C29.5634 14.6615 28.3247 16.04 28.3428 18.1427C28.3644 20.0282 29.2095 21.2516 30.0761 22.0398C30.8375 22.7324 31.5915 23.0607 31.734 23.1227C31.7609 23.1344 31.7661 23.1366 31.7454 23.1302L33.1506 23.5772L32.7276 24.9897C32.7132 25.0383 32.669 25.1811 32.592 25.3988C32.4599 25.7727 32.2283 26.3751 31.8803 27.104C31.4879 27.9261 30.9417 28.9208 30.2148 29.9342C29.5377 30.8826 28.7427 31.9824 27.7848 32.8362C26.7956 33.7181 25.5422 34.4207 23.9481 34.4465H23.9423L23.9541 34.4463L23.9481 34.4465C22.544 34.4777 21.5735 34.0772 20.8058 33.7605L20.7698 33.7457C20.016 33.4347 19.427 33.1971 18.4494 33.1971C17.3865 33.1971 16.7513 33.4514 15.9567 33.7751L15.9165 33.7916C15.2052 34.0815 14.3102 34.4465 13.0762 34.4969L13.062 34.4975C11.4256 34.5486 10.1046 33.7563 9.10051 32.8578C8.1045 31.9667 7.25593 30.8217 6.56644 29.8769L6.56335 29.8727C5.00806 27.7256 3.6628 24.7455 3.0883 21.6377C2.5156 18.5397 2.67835 15.1277 4.39513 12.2825C6.10633 9.44031 9.15676 7.62986 12.504 7.58609C12.5009 7.58616 12.4979 7.58624 12.4948 7.58631L12.5127 7.58598L12.504 7.58609C14.0102 7.55216 15.4202 8.08706 16.3979 8.45798C16.4273 8.46915 16.4564 8.48016 16.485 8.49102C16.8893 8.64413 17.208 8.76413 17.4914 8.84936C17.7801 8.93624 17.9333 8.95521 18.0009 8.95521C18.029 8.95521 18.1485 8.94435 18.4209 8.862C18.6843 8.78238 18.9887 8.66895 19.3844 8.5205C19.4093 8.51118 19.4343 8.50176 19.4597 8.49224C20.6532 8.04413 22.4432 7.3721 24.4716 7.52099ZM24.2567 10.5133C22.9311 10.4147 21.6966 10.8573 20.438 11.3294L20.4116 11.3393C20.0486 11.4755 19.6562 11.6227 19.289 11.7337C18.9219 11.8446 18.4695 11.9552 18.0009 11.9552C17.5035 11.9552 17.0249 11.8418 16.6271 11.7222C16.233 11.6037 15.821 11.4475 15.4485 11.3064L15.4223 11.2965C14.3412 10.887 13.4379 10.5645 12.567 10.5854L12.5491 10.5859C10.2685 10.6136 8.15778 11.8488 6.9649 13.8305L6.96402 13.832C5.75776 15.8307 5.54394 18.4181 6.03832 21.0924C6.53077 23.7563 7.69578 26.3213 8.9916 28.1109C9.70039 29.0822 10.3758 29.9733 11.1009 30.6221C11.8158 31.2618 12.412 31.5141 12.9619 31.499C13.642 31.47 14.117 31.2854 14.8246 30.9969L14.8425 30.9897C15.7037 30.6387 16.7868 30.1971 18.4494 30.1971C20.0346 30.1971 21.0776 30.6273 21.8937 30.9641L21.9135 30.9722C22.655 31.2779 23.1315 31.4645 23.8848 31.4471L23.8968 31.4468C24.5597 31.4369 25.1517 31.1645 25.7888 30.5967C26.4581 30.0002 27.0707 29.175 27.7743 28.1895L27.7763 28.1868C28.3791 27.3464 28.8392 26.5109 29.1731 25.8114C29.2629 25.6233 29.3432 25.4459 29.4143 25.2818C28.9967 25.0227 28.5264 24.6857 28.0575 24.2591C26.7273 23.0493 25.3757 21.0809 25.343 18.1746V18.1712C25.3154 15.0953 26.9606 13.0394 28.1936 11.9333C28.1478 11.8958 28.1019 11.8593 28.0559 11.8239C26.6424 10.7372 25.0145 10.5624 24.2711 10.5143L24.2567 10.5133Z" fill="black"/>
</svg>
