<svg width="29" height="29" viewBox="0 0 29 29" fill="none" xmlns="http://www.w3.org/2000/svg">
<path d="M22.2228 0.000976562H7.20268C3.54296 0.000976562 0.576172 2.96777 0.576172 6.62749V21.6476C0.576172 25.3073 3.54296 28.2741 7.20268 28.2741H22.2228C25.8825 28.2741 28.8493 25.3073 28.8493 21.6476V6.62749C28.8493 2.96777 25.8825 0.000976562 22.2228 0.000976562Z" fill="white"/>
<path d="M22.2228 0.000976562H7.20268C3.54296 0.000976562 0.576172 2.96777 0.576172 6.62749V21.6476C0.576172 25.3073 3.54296 28.2741 7.20268 28.2741H22.2228C25.8825 28.2741 28.8493 25.3073 28.8493 21.6476V6.62749C28.8493 2.96777 25.8825 0.000976562 22.2228 0.000976562Z" fill="#0A66C2"/>
<path d="M20.9769 24.042H24.2095C24.3267 24.042 24.439 23.9955 24.5219 23.9127C24.6047 23.8298 24.6513 23.7175 24.6513 23.6004L24.653 16.7704C24.653 13.2006 23.8837 10.4567 19.712 10.4567C18.1262 10.3977 16.6307 11.2152 15.8237 12.5802C15.8197 12.5869 15.8137 12.592 15.8066 12.5949C15.7994 12.5978 15.7915 12.5983 15.7841 12.5963C15.7766 12.5943 15.7701 12.5899 15.7653 12.5838C15.7606 12.5777 15.758 12.5702 15.758 12.5625V11.228C15.758 11.1108 15.7114 10.9985 15.6286 10.9156C15.5457 10.8328 15.4334 10.7862 15.3162 10.7862H12.2485C12.1313 10.7862 12.0189 10.8328 11.9361 10.9156C11.8532 10.9985 11.8067 11.1108 11.8067 11.228V23.5997C11.8067 23.7169 11.8532 23.8292 11.9361 23.9121C12.0189 23.9949 12.1313 24.0415 12.2485 24.0415H15.4809C15.598 24.0415 15.7104 23.9949 15.7933 23.9121C15.8761 23.8292 15.9227 23.7169 15.9227 23.5997V17.4842C15.9227 15.755 16.2507 14.0804 18.3944 14.0804C20.5078 14.0804 20.5351 16.0591 20.5351 17.5962V23.6002C20.5351 23.7174 20.5817 23.8298 20.6645 23.9126C20.7474 23.9955 20.8597 24.042 20.9769 24.042ZM4.77344 6.5859C4.77344 7.89618 5.85212 8.97432 7.16251 8.97432C8.47258 8.97421 9.5506 7.89541 9.5506 6.58535C9.55038 5.27529 8.47224 4.19727 7.16207 4.19727C5.85157 4.19727 4.77344 5.27562 4.77344 6.5859ZM5.542 24.042H8.77872C8.89588 24.042 9.00825 23.9955 9.0911 23.9126C9.17394 23.8298 9.22049 23.7174 9.22049 23.6002V11.228C9.22049 11.1108 9.17394 10.9985 9.0911 10.9156C9.00825 10.8328 8.89588 10.7862 8.77872 10.7862H5.542C5.42484 10.7862 5.31247 10.8328 5.22963 10.9156C5.14678 10.9985 5.10023 11.1108 5.10023 11.228V23.6002C5.10023 23.7174 5.14678 23.8298 5.22963 23.9126C5.31247 23.9955 5.42484 24.042 5.542 24.042Z" fill="white"/>
</svg>
