<svg width="30" height="30" viewBox="0 0 30 30" fill="none" xmlns="http://www.w3.org/2000/svg">
<path d="M12.4126 16.2375C12.5376 16.2375 15.4376 16.3625 17.1626 15.9375H17.1751C19.1626 15.45 21.9251 14.05 22.6376 9.475C22.6376 9.475 24.2251 3.75 16.3501 3.75H9.58757C8.97507 3.75 8.45007 4.2 8.35007 4.8L5.47507 23C5.41257 23.375 5.71257 23.725 6.08757 23.725H10.3751L11.4251 17.075C11.5001 16.6 11.9126 16.2375 12.4126 16.2375Z" fill="black"/>
<path d="M23.7384 10.3623C22.7259 15.0248 19.5384 17.4873 14.4634 17.4873H12.6259L11.3384 25.6373C11.2884 25.9623 11.5384 26.2498 11.8634 26.2498H14.2384C14.6634 26.2498 15.0384 25.9373 15.1009 25.5123C15.2009 25.0123 15.7509 21.3623 15.8634 20.7373C15.9259 20.3123 16.3009 19.9998 16.7259 19.9998H17.2759C20.8009 19.9998 23.5634 18.5623 24.3759 14.4248C24.7009 12.7498 24.5259 11.3748 23.7384 10.3623Z" fill="black"/>
</svg>
