<svg width="29" height="29" viewBox="0 0 29 29" fill="none" xmlns="http://www.w3.org/2000/svg">
<path d="M21.6809 10.2069C23.7438 11.5112 26.271 12.2786 29.0004 12.2786V7.63311C28.4838 7.63321 27.9687 7.58551 27.4633 7.4908V11.1475C24.7341 11.1475 22.2072 10.3802 20.1439 9.07593V18.5562C20.1439 23.2987 15.7972 27.143 10.4358 27.143C8.43527 27.143 6.57582 26.6081 5.03125 25.6906C6.79417 27.285 9.25267 28.274 11.9725 28.274C17.3344 28.274 21.6811 24.4298 21.6811 19.687V10.2069H21.6809ZM23.5773 5.5201C22.523 4.50137 21.8307 3.18483 21.6809 1.72931V1.13184H20.2243C20.5909 2.98173 21.8417 4.56217 23.5773 5.5201ZM8.42235 22.0514C7.83334 21.3684 7.51494 20.5326 7.51637 19.6734C7.51637 17.5044 9.50449 15.7457 11.9574 15.7457C12.4144 15.7455 12.8688 15.8076 13.3045 15.9297V11.1803C12.7953 11.1187 12.2815 11.0924 11.7679 11.102V14.7987C11.332 14.6765 10.8775 14.6144 10.4202 14.6148C7.96743 14.6148 5.97942 16.3733 5.97942 18.5426C5.97942 20.0765 6.97309 21.4045 8.42235 22.0514Z" fill="#FF004F"/>
<path d="M20.1431 9.07583C22.2066 10.3801 24.7332 11.1474 27.4625 11.1474V7.49071C25.9391 7.20365 24.5904 6.49954 23.5764 5.5201C21.8408 4.56207 20.5902 2.98164 20.2236 1.13184H16.3974V19.6868C16.3887 21.85 14.404 23.6014 11.9564 23.6014C10.5142 23.6014 9.23285 22.9934 8.42141 22.0513C6.97238 21.4045 5.9786 20.0764 5.9786 18.5427C5.9786 16.3736 7.9666 14.6149 10.4194 14.6149C10.8893 14.6149 11.3422 14.6796 11.7671 14.7988V11.1021C6.49978 11.1984 2.26367 15.0051 2.26367 19.6869C2.26367 22.024 3.31853 24.1427 5.03065 25.6908C6.57522 26.6081 8.43456 27.1432 10.4352 27.1432C15.7967 27.1432 20.1433 23.2987 20.1433 18.5562L20.1431 9.07583Z" fill="white"/>
<path d="M27.4625 7.48971V6.50118C26.0887 6.50302 24.742 6.16273 23.5764 5.5192C24.6082 6.51829 25.9668 7.20727 27.4625 7.4899M20.2234 1.13084C20.1884 0.954086 20.1616 0.776152 20.143 0.597476V0H14.86V18.5552C14.8516 20.7181 12.8669 22.4696 10.4192 22.4696C9.72531 22.4705 9.0409 22.327 8.42126 22.0506C9.23269 22.9925 10.5141 23.6004 11.9563 23.6004C14.4037 23.6004 16.3886 21.8492 16.3973 19.686V1.13093L20.2234 1.13084ZM11.7673 11.1011V10.0486C11.3258 9.9952 10.8808 9.96849 10.4352 9.96865C5.07312 9.96865 0.726562 13.8131 0.726562 18.5552C0.726562 21.5283 2.43481 24.1485 5.03071 25.6897C3.31859 24.1417 2.26373 22.0229 2.26373 19.6859C2.26373 15.0042 6.49974 11.1974 11.7673 11.1011Z" fill="#00F2EA"/>
</svg>
